# xmcd CD database file
#
# Track frame offsets:
#	150
#	16864
#	34060
#	50163
#	65549
#	78526
#	95688
#	109668
#	126486
#	142405
#
# Disc length: 2118 seconds
#
# Revision: 0
# Processed by: cddbd v1.5.2PL0 Copyright (c) Steve Scherf et al.
# Submitted via: CDex 1.51
#
DISCID=9408440a
DTITLE=Paul Pace - Paul Pace
DYEAR=2002
DGENRE=Country
TTITLE0=This Ole Honky Tonk
TTITLE1=What She's Givin'
TTITLE2=Face In The Crowd
TTITLE3=I Don't Wanna Lose You, Anna
TTITLE4=Honky Tonk Heartache Of The Year
TTITLE5=I May Fall Again
TTITLE6=I'm Here With Her
TTITLE7=I've Seen It All
TTITLE8=Rain On The River
TTITLE9=End Of The Day
EXTD=YEAR: 2002
EXTT0=
EXTT1=
EXTT2=
EXTT3=
EXTT4=
EXTT5=
EXTT6=
EXTT7=
EXTT8=
EXTT9=
PLAYORDER=
